<?xml version="1.0" encoding="iso-8859-1"?>
<!-- Generator: Adobe Illustrator 19.0.0, SVG Export Plug-In . SVG Version: 6.00 Build 0)  -->
<svg version="1.1" id="Layer_1" xmlns="http://www.w3.org/2000/svg" xmlns:xlink="http://www.w3.org/1999/xlink" x="0px" y="0px"
	 viewBox="0 0 512 512" style="enable-background:new 0 0 512 512;" xml:space="preserve">
<g>
	<g>
		<path d="M452.911,59.872c-4.713,0-8.533,3.821-8.533,8.533v294.352H118.439v-62.242c0-4.713-3.821-8.533-8.533-8.533
			c-4.713,0-8.533,3.821-8.533,8.533v62.865c-13.122,1.898-24.864,8.101-33.749,17.13V59.349c0-20.392,14.511-37.458,33.749-41.416
			v32.106c0,4.713,3.821,8.533,8.533,8.533c4.713,0,8.533-3.821,8.533-8.533V17.067h325.939v22.894
			c-0.001,4.713,3.82,8.533,8.532,8.533c4.713,0,8.533-3.821,8.533-8.533V8.533c0-4.713-3.821-8.533-8.533-8.533H109.905
			C77.179,0,50.557,26.624,50.557,59.349v362.71c0,0.015-0.001,0.03-0.001,0.044c0,6.277,0.98,12.462,2.909,18.373
			c2.875,8.85,7.879,17.011,14.476,23.608c11.221,11.206,26.122,17.377,41.961,17.377h12.118v22.006c0,3.103,1.683,5.96,4.396,7.464
			c2.711,1.503,6.027,1.417,8.66-0.228l31.886-19.929l31.886,19.929c1.381,0.864,2.95,1.297,4.523,1.297
			c1.422,0,2.848-0.355,4.137-1.07c2.714-1.504,4.396-4.361,4.396-7.464v-22.006h241.003c4.713,0,8.533-3.821,8.533-8.533
			l0.003-404.522C461.445,63.693,457.624,59.872,452.911,59.872z M194.837,472.916c0,0.003,0,0.007,0,0.011c0,0.005,0,0.007,0,0.011
			v15.131l-23.353-14.595c-1.384-0.865-2.954-1.297-4.523-1.297c-1.569,0-3.139,0.432-4.523,1.297l-23.353,14.595v-75.057h55.751
			V472.916z M220.437,395.947H110.073c-4.713,0-8.533,3.821-8.533,8.533c0,4.713,3.821,8.533,8.533,8.533h11.947v16.293H98.695
			c-4.713,0-8.533,3.821-8.533,8.533s3.821,8.533,8.533,8.533h23.324v18.021h-12.118c-11.283,0-21.903-4.399-29.897-12.382
			c-4.697-4.697-8.261-10.51-10.312-16.821c-1.374-4.209-2.071-8.613-2.071-13.088c0.001-23.313,18.968-42.28,42.28-42.28H406.27
			v16.123H272.775c-4.713,0-8.533,3.821-8.533,8.533c0,4.713,3.821,8.533,8.533,8.533H406.27v16.293H211.904v-16.293h8.533
			c4.713,0,8.533-3.821,8.533-8.533C228.97,399.767,225.15,395.947,220.437,395.947z M444.373,464.394L444.373,464.394h-232.47
			v-18.021h202.9c4.713,0,8.533-3.821,8.533-8.533v-58.016h21.036V464.394z"/>
	</g>
</g>
<g>
	<g>
		<path d="M109.905,70.542c-4.713,0-8.533,3.821-8.533,8.533v190.588c0,4.713,3.821,8.533,8.533,8.533
			c4.713,0,8.533-3.821,8.533-8.533V79.076C118.439,74.363,114.618,70.542,109.905,70.542z"/>
	</g>
</g>
<g>
	<g>
		<path d="M412.983,79.436c-17.195,0-31.184-13.989-31.184-31.184c0-4.713-3.821-8.533-8.533-8.533H191.365
			c-4.713,0-8.533,3.821-8.533,8.533c0,17.195-13.989,31.184-31.184,31.184c-4.713,0-8.533,3.821-8.533,8.533v201.865
			c0,4.713,3.821,8.533,8.533,8.533c17.195,0,31.184,13.989,31.184,31.184c0,4.713,3.821,8.533,8.533,8.533h37.466
			c4.713,0,8.533-3.821,8.533-8.533c0-4.713-3.821-8.533-8.533-8.533h-29.688c-3.544-19.778-19.184-35.418-38.962-38.962V95.747
			c19.778-3.544,35.418-19.184,38.962-38.962h166.345c3.544,19.778,19.184,35.418,38.962,38.962v186.31
			c-19.778,3.544-35.418,19.184-38.962,38.962H257.275c-4.713,0-8.533,3.821-8.533,8.533c0,4.713,3.821,8.533,8.533,8.533h115.991
			c4.713,0,8.533-3.821,8.533-8.533c0-17.195,13.989-31.184,31.184-31.184c4.713,0,8.533-3.821,8.533-8.533V87.97
			C421.517,83.257,417.696,79.436,412.983,79.436z"/>
	</g>
</g>
<g>
	<g>
		<path d="M333.515,141.684h-42.667V97.88c0-4.713-3.821-8.533-8.533-8.533c-4.713,0-8.533,3.821-8.533,8.533v43.804h-42.667
			c-4.713,0-8.533,3.821-8.533,8.533c0,4.713,3.821,8.533,8.533,8.533h42.667v121.173c0,4.713,3.821,8.533,8.533,8.533
			c4.713,0,8.533-3.821,8.533-8.533V158.751h42.667c4.713,0,8.533-3.821,8.533-8.533
			C342.048,145.505,338.228,141.684,333.515,141.684z"/>
	</g>
</g>
<g>
</g>
<g>
</g>
<g>
</g>
<g>
</g>
<g>
</g>
<g>
</g>
<g>
</g>
<g>
</g>
<g>
</g>
<g>
</g>
<g>
</g>
<g>
</g>
<g>
</g>
<g>
</g>
<g>
</g>
</svg>
