<?xml version="1.0" encoding="iso-8859-1"?>
<!-- Generator: Adobe Illustrator 19.0.0, SVG Export Plug-In . SVG Version: 6.00 Build 0)  -->
<svg version="1.1" id="Layer_1" xmlns="http://www.w3.org/2000/svg" xmlns:xlink="http://www.w3.org/1999/xlink" x="0px" y="0px"
	 viewBox="0 0 512 512" style="enable-background:new 0 0 512 512;" xml:space="preserve">
<g>
	<g>
		<g>
			<path d="M443.733,170.667h-17.067V153.6c0-9.412-7.654-17.067-17.067-17.067h-34.133c-9.412,0-17.067,7.654-17.067,17.067v17.067
				h-68.267V102.4H307.2c9.412,0,17.067-7.654,17.067-17.067V51.2c0-9.412-7.654-17.067-17.067-17.067h-17.067V17.067
				C290.133,7.654,282.479,0,273.067,0h-34.133c-9.412,0-17.067,7.654-17.067,17.067v17.067H204.8
				c-9.412,0-17.067,7.654-17.067,17.067v34.133c0,9.412,7.654,17.067,17.067,17.067h17.067v68.267H153.6V153.6
				c0-9.412-7.654-17.067-17.067-17.067H102.4c-9.412,0-17.067,7.654-17.067,17.067v17.067H68.267
				c-9.412,0-17.067,7.654-17.067,17.067v34.133c0,9.412,7.654,17.067,17.067,17.067h17.067V256c0,9.412,7.654,17.067,17.067,17.067
				h34.133c9.412,0,17.067-7.654,17.067-17.067v-17.067h68.267V409.6H204.8c-9.412,0-17.067,7.654-17.067,17.067V460.8
				c0,9.412,7.654,17.067,17.067,17.067h17.067v17.067c0,9.412,7.654,17.067,17.067,17.067h34.133
				c9.412,0,17.067-7.654,17.067-17.067v-17.067H307.2c9.412,0,17.067-7.654,17.067-17.067v-34.133
				c0-9.412-7.654-17.067-17.067-17.067h-17.067V238.933h76.8c4.71,0,8.533-3.823,8.533-8.533s-3.823-8.533-8.533-8.533H281.6
				c-4.71,0-8.533,3.823-8.533,8.533v187.733c0,4.71,3.823,8.533,8.533,8.533h25.6V460.8h-25.6c-4.71,0-8.533,3.823-8.533,8.533
				v25.6h-34.133v-25.6c0-4.71-3.823-8.533-8.533-8.533h-25.6v-34.133h25.6c4.71,0,8.533-3.823,8.533-8.533V230.4
				c0-4.71-3.823-8.533-8.533-8.533h-85.333c-4.71,0-8.533,3.823-8.533,8.533V256H102.4v-25.6c0-4.71-3.823-8.533-8.533-8.533h-25.6
				v-34.133h25.6c4.71,0,8.533-3.823,8.533-8.533v-25.6h34.133v25.6c0,4.71,3.823,8.533,8.533,8.533H230.4
				c4.71,0,8.533-3.823,8.533-8.533V93.867c0-4.71-3.823-8.533-8.533-8.533h-25.6V51.2h25.6c4.71,0,8.533-3.823,8.533-8.533v-25.6
				h34.133v25.6c0,4.71,3.823,8.533,8.533,8.533h25.6v34.133h-25.6c-4.71,0-8.533,3.823-8.533,8.533V179.2
				c0,4.71,3.823,8.533,8.533,8.533h85.333c4.71,0,8.533-3.823,8.533-8.533v-25.6H409.6v25.6c0,4.71,3.823,8.533,8.533,8.533h25.6
				v34.133h-25.6c-4.71,0-8.533,3.823-8.533,8.533V256l-34.133,0.009V256c0-4.71-3.823-8.533-8.533-8.533S358.4,251.29,358.4,256
				c0,9.412,7.654,17.067,17.067,17.067H409.6c9.412,0,17.067-7.654,17.067-17.067v-17.067h17.067
				c9.412,0,17.067-7.654,17.067-17.067v-34.133C460.8,178.321,453.146,170.667,443.733,170.667z"/>
			<path d="M401.323,204.8c0-4.71-3.814-8.533-8.533-8.533h-0.085c-4.71,0-8.491,3.823-8.491,8.533c0,4.71,3.857,8.533,8.576,8.533
				C397.508,213.333,401.323,209.51,401.323,204.8z"/>
			<path d="M119.637,196.267c-4.71,0-8.491,3.823-8.491,8.533c0,4.71,3.857,8.533,8.576,8.533s8.533-3.823,8.533-8.533
				c0-4.71-3.814-8.533-8.533-8.533H119.637z"/>
			<path d="M256.256,435.2h-0.085c-4.71,0-8.491,3.823-8.491,8.533s3.857,8.533,8.576,8.533c4.71,0,8.533-3.823,8.533-8.533
				S260.966,435.2,256.256,435.2z"/>
			<path d="M256.256,59.733h-0.085c-4.71,0-8.491,3.823-8.491,8.533s3.857,8.533,8.576,8.533c4.71,0,8.533-3.823,8.533-8.533
				S260.966,59.733,256.256,59.733z"/>
		</g>
	</g>
</g>
<g>
</g>
<g>
</g>
<g>
</g>
<g>
</g>
<g>
</g>
<g>
</g>
<g>
</g>
<g>
</g>
<g>
</g>
<g>
</g>
<g>
</g>
<g>
</g>
<g>
</g>
<g>
</g>
<g>
</g>
</svg>
