<?xml version="1.0" encoding="utf-8"?>
<!-- Generator: Adobe Illustrator 27.5.0, SVG Export Plug-In . SVG Version: 6.00 Build 0)  -->
<svg version="1.1" xmlns="http://www.w3.org/2000/svg" xmlns:xlink="http://www.w3.org/1999/xlink" x="0px" y="0px"
	 viewBox="0 0 2200 2200" style="enable-background:new 0 0 2200 2200;" xml:space="preserve">
<g id="background">
	<rect style="fill:#FFFFFF;" width="2200" height="2200"/>
</g>
<g id="Objects">
	<g>
		<path style="fill:#C69758;" d="M1592.42,970.422v193.91c0,11.046-8.954,20-20,20h-355.45v747.4c0,11.046-8.954,20-20,20h-193.93
			c-11.05,0-20-8.96-20-20v-747.4H627.58c-11.046,0-20-8.954-20-20v-193.91c0-11.046,8.954-20,20-20h355.46v-357.45
			c0-11.04,8.95-20,20-20h193.93c11.046,0,20,8.954,20,20v357.45h355.45C1583.466,950.422,1592.42,959.377,1592.42,970.422z"/>
		<path style="fill:#C69758;" d="M1399.671,782.976c-1.446,0-2.881-0.624-3.869-1.829c-1.751-2.135-1.439-5.286,0.695-7.037
			l293.479-240.695c2.135-1.752,5.287-1.439,7.037,0.695c1.751,2.135,1.439,5.286-0.695,7.037l-293.479,240.695
			C1401.909,782.605,1400.786,782.976,1399.671,782.976z"/>
		<path style="fill:#C69758;" d="M1528.026,856.902c-1.711,0-3.376-0.878-4.31-2.457c-1.404-2.377-0.616-5.444,1.761-6.849
			l278.506-164.579c2.381-1.404,5.443-0.615,6.849,1.761c1.404,2.377,0.616,5.444-1.761,6.849l-278.506,164.579
			C1529.767,856.678,1528.891,856.902,1528.026,856.902z"/>
		<path style="fill:#C69758;" d="M1808.711,881.485c-2.037,0-3.951-1.255-4.694-3.279c-0.951-2.593,0.38-5.465,2.972-6.417
			l49.478-18.156c2.59-0.95,5.465,0.379,6.417,2.971c0.951,2.593-0.38,5.465-2.972,6.417l-49.478,18.156
			C1809.865,881.386,1809.283,881.485,1808.711,881.485z"/>
		<path style="fill:#C69758;" d="M1637.517,944.306c-2.037,0-3.951-1.255-4.694-3.279c-0.951-2.593,0.38-5.465,2.972-6.417
			l133.044-48.821c2.597-0.952,5.466,0.38,6.417,2.971c0.951,2.593-0.38,5.465-2.972,6.417l-133.044,48.821
			C1638.671,944.207,1638.089,944.306,1637.517,944.306z"/>
		<path style="fill:#C69758;" d="M1528.021,483.473c-1.232,0-2.467-0.453-3.433-1.365c-2.008-1.896-2.098-5.061-0.201-7.068
			l38.23-40.467c1.897-2.007,5.063-2.096,7.068-0.201c2.008,1.896,2.098,5.061,0.201,7.068l-38.23,40.467
			C1530.673,482.948,1529.348,483.473,1528.021,483.473z"/>
		<path style="fill:#C69758;" d="M1351.906,669.893c-1.232,0-2.467-0.453-3.433-1.365c-2.008-1.896-2.098-5.061-0.201-7.068
			l146.24-154.797c1.897-2.007,5.063-2.096,7.068-0.201c2.008,1.896,2.098,5.061,0.201,7.068l-146.24,154.797
			C1354.559,669.367,1353.233,669.893,1351.906,669.893z"/>
		<path style="fill:#C69758;" d="M1300.208,577.973c-0.869,0-1.748-0.227-2.55-0.703c-2.374-1.411-3.154-4.479-1.743-6.853
			l133.127-224.017c1.409-2.374,4.475-3.156,6.853-1.744c2.374,1.411,3.154,4.479,1.743,6.853l-133.127,224.017
			C1303.576,577.099,1301.914,577.973,1300.208,577.973z"/>
		<path style="fill:#C69758;" d="M1233.935,424.125c-0.401,0-0.81-0.048-1.217-0.15c-2.679-0.67-4.308-3.384-3.638-6.063
			l28.983-115.919c0.671-2.679,3.387-4.308,6.063-3.638c2.679,0.67,4.308,3.384,3.638,6.063l-28.983,115.919
			C1238.213,422.609,1236.175,424.125,1233.935,424.125z"/>
		<path style="fill:#C69758;" d="M1213.07,507.575c-0.401,0-0.81-0.048-1.217-0.15c-2.679-0.67-4.308-3.384-3.638-6.063
			l10.465-41.855c0.671-2.678,3.387-4.308,6.063-3.638c2.679,0.67,4.308,3.384,3.638,6.063l-10.465,41.855
			C1217.349,506.058,1215.311,507.575,1213.07,507.575z"/>
		<path style="fill:#C69758;" d="M1100,475.675c-2.762,0-5-2.239-5-5V248.268c0-2.761,2.238-5,5-5s5,2.239,5,5v222.407
			C1105,473.436,1102.762,475.675,1100,475.675z"/>
		<path style="fill:#C69758;" d="M1879.897,1076.44h-236.584c-2.762,0-5-2.239-5-5s2.238-5,5-5h236.584c2.762,0,5,2.239,5,5
			S1882.659,1076.44,1879.897,1076.44z"/>
		<path style="fill:#C69758;" d="M800.329,782.976c-1.115,0-2.238-0.371-3.168-1.134L503.682,541.147
			c-2.135-1.751-2.446-4.902-0.695-7.037c1.75-2.134,4.901-2.448,7.037-0.695L803.503,774.11c2.135,1.751,2.446,4.902,0.695,7.037
			C803.21,782.352,801.775,782.976,800.329,782.976z"/>
		<path style="fill:#C69758;" d="M671.974,856.902c-0.864,0-1.74-0.225-2.539-0.696L390.929,691.627
			c-2.377-1.405-3.166-4.471-1.761-6.849c1.405-2.376,4.472-3.166,6.849-1.761l278.505,164.579c2.377,1.405,3.165,4.471,1.761,6.849
			C675.35,856.024,673.684,856.902,671.974,856.902z"/>
		<path style="fill:#C69758;" d="M391.289,881.485c-0.572,0-1.154-0.099-1.722-0.308l-49.478-18.156
			c-2.592-0.951-3.922-3.824-2.971-6.417c0.952-2.592,3.825-3.923,6.417-2.971l49.478,18.156c2.592,0.951,3.922,3.824,2.971,6.417
			C395.24,880.23,393.326,881.485,391.289,881.485z"/>
		<path style="fill:#C69758;" d="M562.483,944.306c-0.572,0-1.154-0.099-1.723-0.308l-133.043-48.821
			c-2.592-0.951-3.922-3.824-2.971-6.417s3.825-3.923,6.417-2.971l133.043,48.821c2.592,0.951,3.923,3.824,2.972,6.417
			C566.435,943.051,564.521,944.306,562.483,944.306z"/>
		<path style="fill:#C69758;" d="M671.979,483.473c-1.327,0-2.652-0.525-3.636-1.566l-38.23-40.467
			c-1.896-2.007-1.807-5.172,0.201-7.068c2.007-1.896,5.173-1.805,7.068,0.201l38.23,40.467c1.896,2.007,1.807,5.172-0.201,7.068
			C674.446,483.021,673.211,483.473,671.979,483.473z"/>
		<path style="fill:#C69758;" d="M848.094,669.893c-1.327,0-2.652-0.525-3.636-1.566l-146.24-154.797
			c-1.896-2.007-1.807-5.172,0.201-7.068c2.008-1.896,5.172-1.805,7.068,0.201l146.24,154.797c1.896,2.007,1.807,5.172-0.201,7.068
			C850.561,669.44,849.325,669.893,848.094,669.893z"/>
		<path style="fill:#C69758;" d="M899.792,577.973c-1.706,0-3.368-0.874-4.303-2.447L762.362,351.509
			c-1.411-2.374-0.631-5.442,1.743-6.853c2.374-1.412,5.442-0.629,6.853,1.744l133.127,224.017c1.411,2.374,0.631,5.442-1.743,6.853
			C901.54,577.747,900.66,577.973,899.792,577.973z"/>
		<path style="fill:#C69758;" d="M966.065,424.125c-2.24,0-4.278-1.516-4.847-3.788l-28.983-115.919
			c-0.67-2.679,0.959-5.394,3.638-6.063c2.678-0.673,5.394,0.958,6.063,3.638l28.983,115.919c0.67,2.679-0.959,5.394-3.638,6.063
			C966.875,424.077,966.467,424.125,966.065,424.125z"/>
		<path style="fill:#C69758;" d="M986.93,507.575c-2.24,0-4.278-1.516-4.847-3.788l-10.465-41.855
			c-0.67-2.679,0.959-5.394,3.638-6.063c2.679-0.673,5.394,0.958,6.063,3.638l10.465,41.855c0.67,2.679-0.959,5.394-3.638,6.063
			C987.739,507.526,987.331,507.575,986.93,507.575z"/>
		<path style="fill:#C69758;" d="M556.687,1076.44H320.103c-2.761,0-5-2.239-5-5s2.239-5,5-5h236.584c2.762,0,5,2.239,5,5
			S559.448,1076.44,556.687,1076.44z"/>
		<g>
			<path style="fill:#C69758;" d="M1798.006,1487.401c-1.115,0-2.238-0.371-3.168-1.134l-254.271-208.539
				c-2.135-1.751-2.446-4.901-0.695-7.037c1.749-2.135,4.9-2.447,7.037-0.695l254.271,208.539c2.135,1.751,2.446,4.901,0.695,7.037
				C1800.887,1486.777,1799.452,1487.401,1798.006,1487.401z"/>
			<path style="fill:#C69758;" d="M1871.941,1278.863c-0.572,0-1.154-0.099-1.723-0.307l-49.478-18.156
				c-2.592-0.952-3.923-3.824-2.972-6.417c0.951-2.592,3.824-3.921,6.417-2.972l49.478,18.156c2.592,0.952,3.923,3.824,2.972,6.417
				C1875.893,1277.608,1873.979,1278.863,1871.941,1278.863z"/>
			<path style="fill:#C69758;" d="M1784.313,1246.708c-0.572,0-1.154-0.099-1.723-0.307l-133.044-48.821
				c-2.592-0.952-3.923-3.824-2.972-6.417c0.952-2.59,3.822-3.921,6.417-2.972l133.044,48.821c2.592,0.952,3.923,3.824,2.972,6.417
				C1788.265,1245.453,1786.351,1246.708,1784.313,1246.708z"/>
			<path style="fill:#C69758;" d="M1680.088,1596.789c-1.327,0-2.652-0.525-3.636-1.566l-38.229-40.467
				c-1.896-2.007-1.807-5.172,0.201-7.068c2.007-1.895,5.173-1.806,7.068,0.201l38.229,40.467c1.896,2.007,1.807,5.172-0.201,7.068
				C1682.555,1596.336,1681.319,1596.789,1680.088,1596.789z"/>
			<path style="fill:#C69758;" d="M1611.983,1524.7c-1.327,0-2.652-0.525-3.636-1.566l-146.24-154.797
				c-1.896-2.007-1.807-5.172,0.201-7.068c2.008-1.895,5.173-1.806,7.068,0.201l146.24,154.797c1.896,2.007,1.807,5.172-0.201,7.068
				C1614.45,1524.247,1613.215,1524.7,1611.983,1524.7z"/>
			<path style="fill:#C69758;" d="M1521.059,1671.629c-1.706,0-3.368-0.874-4.303-2.446l-133.126-224.018
				c-1.411-2.374-0.63-5.442,1.743-6.853c2.374-1.414,5.442-0.63,6.853,1.743l133.126,224.018c1.411,2.374,0.631,5.442-1.743,6.853
				C1522.808,1671.402,1521.927,1671.629,1521.059,1671.629z"/>
			<path style="fill:#C69758;" d="M1350.625,1717.379c-2.24,0-4.278-1.517-4.847-3.788l-28.983-115.92
				c-0.67-2.679,0.959-5.394,3.638-6.063c2.678-0.669,5.393,0.959,6.063,3.638l28.983,115.92c0.67,2.679-0.959,5.394-3.638,6.063
				C1351.435,1717.33,1351.026,1717.379,1350.625,1717.379z"/>
			<path style="fill:#C69758;" d="M1311.242,1559.865c-2.24,0-4.278-1.517-4.847-3.788l-10.466-41.855
				c-0.67-2.679,0.959-5.394,3.638-6.063c2.68-0.671,5.393,0.959,6.063,3.638l10.466,41.855c0.67,2.679-0.959,5.394-3.638,6.063
				C1312.052,1559.816,1311.644,1559.865,1311.242,1559.865z"/>
		</g>
		<g>
			<path style="fill:#C69758;" d="M401.994,1487.401c-1.446,0-2.88-0.624-3.869-1.829c-1.751-2.136-1.439-5.286,0.695-7.037
				l254.271-208.539c2.136-1.751,5.287-1.439,7.037,0.695c1.751,2.136,1.439,5.286-0.695,7.037l-254.271,208.539
				C404.232,1487.03,403.109,1487.401,401.994,1487.401z"/>
			<path style="fill:#C69758;" d="M328.059,1278.863c-2.038,0-3.952-1.254-4.694-3.278c-0.951-2.593,0.379-5.465,2.971-6.417
				l49.478-18.156c2.594-0.95,5.466,0.379,6.417,2.972c0.951,2.593-0.379,5.465-2.971,6.417l-49.478,18.156
				C329.213,1278.765,328.631,1278.863,328.059,1278.863z"/>
			<path style="fill:#C69758;" d="M415.688,1246.708c-2.038,0-3.952-1.254-4.694-3.278c-0.951-2.593,0.379-5.465,2.971-6.417
				l133.043-48.821c2.592-0.949,5.465,0.378,6.417,2.972c0.951,2.593-0.38,5.465-2.972,6.417l-133.043,48.821
				C416.841,1246.609,416.259,1246.708,415.688,1246.708z"/>
			<path style="fill:#C69758;" d="M519.912,1596.789c-1.232,0-2.467-0.452-3.433-1.365c-2.008-1.896-2.098-5.062-0.201-7.068
				l38.229-40.467c1.896-2.008,5.063-2.097,7.068-0.201c2.008,1.896,2.098,5.062,0.201,7.068l-38.229,40.467
				C522.564,1596.264,521.239,1596.789,519.912,1596.789z"/>
			<path style="fill:#C69758;" d="M588.017,1524.7c-1.232,0-2.467-0.452-3.433-1.365c-2.008-1.896-2.098-5.062-0.201-7.068
				l146.24-154.797c1.897-2.008,5.063-2.097,7.068-0.201c2.008,1.896,2.098,5.062,0.201,7.068l-146.24,154.797
				C590.669,1524.175,589.344,1524.7,588.017,1524.7z"/>
			<path style="fill:#C69758;" d="M678.941,1671.629c-0.868,0-1.748-0.227-2.55-0.703c-2.374-1.41-3.154-4.479-1.743-6.853
				l133.126-224.018c1.41-2.373,4.475-3.157,6.853-1.743c2.373,1.41,3.154,4.479,1.743,6.853l-133.126,224.018
				C682.31,1670.755,680.647,1671.629,678.941,1671.629z"/>
			<path style="fill:#C69758;" d="M849.375,1717.379c-0.401,0-0.81-0.049-1.217-0.15c-2.679-0.67-4.308-3.385-3.638-6.063
				l28.983-115.92c0.671-2.678,3.384-4.304,6.063-3.638c2.679,0.67,4.308,3.385,3.638,6.063l-28.983,115.92
				C853.653,1715.862,851.615,1717.379,849.375,1717.379z"/>
			<path style="fill:#C69758;" d="M888.758,1559.865c-0.401,0-0.81-0.049-1.217-0.15c-2.679-0.67-4.308-3.385-3.638-6.063
				l10.466-41.855c0.67-2.679,3.385-4.306,6.063-3.638c2.679,0.67,4.308,3.385,3.638,6.063l-10.466,41.855
				C893.036,1558.349,890.998,1559.865,888.758,1559.865z"/>
		</g>
	</g>
</g>
</svg>
